<mxfile host="app.diagrams.net" modified="2023-10-27T03:26:29.578Z" agent="Mozilla/5.0 (Windows NT 10.0; Win64; x64) AppleWebKit/537.36 (KHTML, like Gecko) Chrome/118.0.0.0 Safari/537.36" etag="6HDpsDSVmVyHzTEB-rdu" version="22.0.8" type="github">
  <diagram name="Page-1" id="V6OJBMJcq4390pBjH3aX">
    <mxGraphModel dx="-1431" dy="892" grid="1" gridSize="10" guides="1" tooltips="1" connect="1" arrows="1" fold="1" page="1" pageScale="1" pageWidth="850" pageHeight="1100" math="0" shadow="0">
      <root>
        <mxCell id="0" />
        <mxCell id="1" parent="0" />
        <mxCell id="k3ujH99_nBCrgttbyDJp-1" value="" style="rounded=0;whiteSpace=wrap;html=1;fontSize=36;labelBackgroundColor=none;fillColor=#f5f5f5;fontColor=#333333;strokeColor=#666666;" vertex="1" parent="1">
          <mxGeometry x="3400" y="7.105427357601002e-15" width="850" height="1100" as="geometry" />
        </mxCell>
        <mxCell id="k3ujH99_nBCrgttbyDJp-2" style="edgeStyle=orthogonalEdgeStyle;rounded=0;orthogonalLoop=1;jettySize=auto;html=1;" edge="1" parent="1" source="k3ujH99_nBCrgttbyDJp-5" target="k3ujH99_nBCrgttbyDJp-8">
          <mxGeometry relative="1" as="geometry" />
        </mxCell>
        <mxCell id="k3ujH99_nBCrgttbyDJp-3" style="edgeStyle=orthogonalEdgeStyle;rounded=0;orthogonalLoop=1;jettySize=auto;html=1;" edge="1" parent="1" source="k3ujH99_nBCrgttbyDJp-5" target="k3ujH99_nBCrgttbyDJp-7">
          <mxGeometry relative="1" as="geometry" />
        </mxCell>
        <mxCell id="k3ujH99_nBCrgttbyDJp-4" style="edgeStyle=orthogonalEdgeStyle;rounded=0;orthogonalLoop=1;jettySize=auto;html=1;entryX=0;entryY=0.5;entryDx=0;entryDy=0;" edge="1" parent="1" source="k3ujH99_nBCrgttbyDJp-5" target="k3ujH99_nBCrgttbyDJp-6">
          <mxGeometry relative="1" as="geometry" />
        </mxCell>
        <mxCell id="k3ujH99_nBCrgttbyDJp-5" value="&lt;b&gt;Curse&lt;/b&gt;" style="rounded=1;arcSize=10;whiteSpace=wrap;html=1;align=center;fillColor=#B3FF66;strokeColor=#CCFF99;" vertex="1" parent="1">
          <mxGeometry x="3953" y="401.4899999999999" width="100" height="40" as="geometry" />
        </mxCell>
        <mxCell id="k3ujH99_nBCrgttbyDJp-6" value="Price" style="ellipse;whiteSpace=wrap;html=1;align=center;fillColor=#E6FFCC;strokeColor=#E6FFCC;" vertex="1" parent="1">
          <mxGeometry x="4103" y="430.4899999999999" width="100" height="40" as="geometry" />
        </mxCell>
        <mxCell id="k3ujH99_nBCrgttbyDJp-7" value="Name" style="ellipse;whiteSpace=wrap;html=1;align=center;fillColor=#E6FFCC;strokeColor=#E6FFCC;" vertex="1" parent="1">
          <mxGeometry x="4103" y="370.49" width="100" height="40" as="geometry" />
        </mxCell>
        <mxCell id="k3ujH99_nBCrgttbyDJp-8" value="Code" style="ellipse;whiteSpace=wrap;html=1;align=center;fontStyle=4;fillColor=#E6FFCC;strokeColor=#E6FFCC;" vertex="1" parent="1">
          <mxGeometry x="3953" y="335.49" width="100" height="40" as="geometry" />
        </mxCell>
        <mxCell id="k3ujH99_nBCrgttbyDJp-9" style="edgeStyle=orthogonalEdgeStyle;rounded=0;orthogonalLoop=1;jettySize=auto;html=1;entryX=1;entryY=0.5;entryDx=0;entryDy=0;" edge="1" parent="1" source="k3ujH99_nBCrgttbyDJp-12" target="k3ujH99_nBCrgttbyDJp-14">
          <mxGeometry relative="1" as="geometry" />
        </mxCell>
        <mxCell id="k3ujH99_nBCrgttbyDJp-10" style="edgeStyle=orthogonalEdgeStyle;rounded=0;orthogonalLoop=1;jettySize=auto;html=1;entryX=1;entryY=0.5;entryDx=0;entryDy=0;" edge="1" parent="1" source="k3ujH99_nBCrgttbyDJp-12" target="k3ujH99_nBCrgttbyDJp-15">
          <mxGeometry relative="1" as="geometry" />
        </mxCell>
        <mxCell id="k3ujH99_nBCrgttbyDJp-11" style="edgeStyle=orthogonalEdgeStyle;rounded=0;orthogonalLoop=1;jettySize=auto;html=1;entryX=1;entryY=0.5;entryDx=0;entryDy=0;" edge="1" parent="1" source="k3ujH99_nBCrgttbyDJp-12" target="k3ujH99_nBCrgttbyDJp-16">
          <mxGeometry relative="1" as="geometry" />
        </mxCell>
        <mxCell id="k3ujH99_nBCrgttbyDJp-12" value="&lt;b&gt;Instructor&lt;/b&gt;" style="rounded=1;arcSize=10;whiteSpace=wrap;html=1;align=center;fillColor=#FFFF66;strokeColor=#FFFF66;" vertex="1" parent="1">
          <mxGeometry x="3578" y="401.1099999999999" width="100" height="40" as="geometry" />
        </mxCell>
        <mxCell id="k3ujH99_nBCrgttbyDJp-13" value="&lt;b&gt;Teach&lt;/b&gt;" style="shape=rhombus;perimeter=rhombusPerimeter;whiteSpace=wrap;html=1;align=center;fillColor=#CCCCCC;strokeColor=#CCCCCC;" vertex="1" parent="1">
          <mxGeometry x="3753" y="390.99" width="120" height="60" as="geometry" />
        </mxCell>
        <mxCell id="k3ujH99_nBCrgttbyDJp-14" value="Name" style="ellipse;whiteSpace=wrap;html=1;align=center;fillColor=#FFFF99;strokeColor=#FFFF99;" vertex="1" parent="1">
          <mxGeometry x="3453" y="402.49" width="100" height="40" as="geometry" />
        </mxCell>
        <mxCell id="k3ujH99_nBCrgttbyDJp-15" value="InstructorID" style="ellipse;whiteSpace=wrap;html=1;align=center;fontStyle=4;fillColor=#FFFF99;strokeColor=#FFFF99;" vertex="1" parent="1">
          <mxGeometry x="3503" y="337.49" width="100" height="40" as="geometry" />
        </mxCell>
        <mxCell id="k3ujH99_nBCrgttbyDJp-16" value="PhoneNumber" style="ellipse;whiteSpace=wrap;html=1;align=center;fillColor=#FFFF99;strokeColor=#FFFF99;" vertex="1" parent="1">
          <mxGeometry x="3503" y="466.49" width="100" height="40" as="geometry" />
        </mxCell>
        <mxCell id="k3ujH99_nBCrgttbyDJp-17" style="edgeStyle=orthogonalEdgeStyle;rounded=0;orthogonalLoop=1;jettySize=auto;html=1;entryX=1;entryY=0.5;entryDx=0;entryDy=0;" edge="1" parent="1" source="k3ujH99_nBCrgttbyDJp-20" target="k3ujH99_nBCrgttbyDJp-22">
          <mxGeometry relative="1" as="geometry" />
        </mxCell>
        <mxCell id="k3ujH99_nBCrgttbyDJp-18" style="edgeStyle=orthogonalEdgeStyle;rounded=0;orthogonalLoop=1;jettySize=auto;html=1;entryX=1;entryY=0.5;entryDx=0;entryDy=0;" edge="1" parent="1" source="k3ujH99_nBCrgttbyDJp-20" target="k3ujH99_nBCrgttbyDJp-21">
          <mxGeometry relative="1" as="geometry" />
        </mxCell>
        <mxCell id="k3ujH99_nBCrgttbyDJp-19" style="edgeStyle=orthogonalEdgeStyle;rounded=0;orthogonalLoop=1;jettySize=auto;html=1;entryX=1;entryY=0.5;entryDx=0;entryDy=0;" edge="1" parent="1" source="k3ujH99_nBCrgttbyDJp-20" target="k3ujH99_nBCrgttbyDJp-23">
          <mxGeometry relative="1" as="geometry" />
        </mxCell>
        <mxCell id="k3ujH99_nBCrgttbyDJp-20" value="&lt;b&gt;Student&lt;/b&gt;" style="rounded=1;arcSize=10;whiteSpace=wrap;html=1;align=center;fillColor=#FF99CC;strokeColor=#FF99CC;" vertex="1" parent="1">
          <mxGeometry x="3578" y="676.95" width="100" height="40" as="geometry" />
        </mxCell>
        <mxCell id="k3ujH99_nBCrgttbyDJp-21" value="PhoneNumber" style="ellipse;whiteSpace=wrap;html=1;align=center;fillColor=#FFCCE6;strokeColor=#FFCCE6;" vertex="1" parent="1">
          <mxGeometry x="3503" y="623.46" width="100" height="40" as="geometry" />
        </mxCell>
        <mxCell id="k3ujH99_nBCrgttbyDJp-22" value="Name" style="ellipse;whiteSpace=wrap;html=1;align=center;fillColor=#FFCCE6;strokeColor=#FFCCE6;" vertex="1" parent="1">
          <mxGeometry x="3453" y="676.9500000000002" width="100" height="40" as="geometry" />
        </mxCell>
        <mxCell id="k3ujH99_nBCrgttbyDJp-23" value="StudentID" style="ellipse;whiteSpace=wrap;html=1;align=center;fontStyle=4;fillColor=#FFCCE6;strokeColor=#FFCCE6;" vertex="1" parent="1">
          <mxGeometry x="3503" y="730.9700000000001" width="100" height="40" as="geometry" />
        </mxCell>
        <mxCell id="k3ujH99_nBCrgttbyDJp-24" value="" style="endArrow=none;html=1;rounded=0;exitX=0;exitY=0.5;exitDx=0;exitDy=0;entryX=1;entryY=0.5;entryDx=0;entryDy=0;" edge="1" parent="1" source="k3ujH99_nBCrgttbyDJp-5" target="k3ujH99_nBCrgttbyDJp-13">
          <mxGeometry relative="1" as="geometry">
            <mxPoint x="3873" y="421.99" as="sourcePoint" />
            <mxPoint x="3863" y="490.99" as="targetPoint" />
          </mxGeometry>
        </mxCell>
        <mxCell id="k3ujH99_nBCrgttbyDJp-25" value="N" style="resizable=0;html=1;align=right;verticalAlign=bottom;" connectable="0" vertex="1" parent="k3ujH99_nBCrgttbyDJp-24">
          <mxGeometry x="1" relative="1" as="geometry">
            <mxPoint x="53" y="-4" as="offset" />
          </mxGeometry>
        </mxCell>
        <mxCell id="k3ujH99_nBCrgttbyDJp-26" value="" style="endArrow=none;html=1;rounded=0;entryX=1;entryY=0.5;entryDx=0;entryDy=0;exitX=0;exitY=0.5;exitDx=0;exitDy=0;" edge="1" parent="1" source="k3ujH99_nBCrgttbyDJp-13" target="k3ujH99_nBCrgttbyDJp-12">
          <mxGeometry relative="1" as="geometry">
            <mxPoint x="3593" y="650.99" as="sourcePoint" />
            <mxPoint x="3753" y="650.99" as="targetPoint" />
          </mxGeometry>
        </mxCell>
        <mxCell id="k3ujH99_nBCrgttbyDJp-27" value="1" style="resizable=0;html=1;align=right;verticalAlign=bottom;" connectable="0" vertex="1" parent="k3ujH99_nBCrgttbyDJp-26">
          <mxGeometry x="1" relative="1" as="geometry">
            <mxPoint x="49" y="-4" as="offset" />
          </mxGeometry>
        </mxCell>
        <mxCell id="k3ujH99_nBCrgttbyDJp-28" value="&lt;b&gt;Contain&lt;/b&gt;" style="shape=rhombus;perimeter=rhombusPerimeter;whiteSpace=wrap;html=1;align=center;fillColor=#CCCCCC;strokeColor=#CCCCCC;" vertex="1" parent="1">
          <mxGeometry x="3753" y="666.9500000000002" width="120" height="60" as="geometry" />
        </mxCell>
        <mxCell id="k3ujH99_nBCrgttbyDJp-29" value="" style="endArrow=none;html=1;rounded=0;exitX=0.5;exitY=1;exitDx=0;exitDy=0;entryX=0.5;entryY=0;entryDx=0;entryDy=0;" edge="1" parent="1" source="k3ujH99_nBCrgttbyDJp-5" target="k3ujH99_nBCrgttbyDJp-36">
          <mxGeometry relative="1" as="geometry">
            <mxPoint x="3963" y="432.49" as="sourcePoint" />
            <mxPoint x="3803" y="430.99" as="targetPoint" />
          </mxGeometry>
        </mxCell>
        <mxCell id="k3ujH99_nBCrgttbyDJp-30" value="N" style="resizable=0;html=1;align=right;verticalAlign=bottom;" connectable="0" vertex="1" parent="k3ujH99_nBCrgttbyDJp-29">
          <mxGeometry x="1" relative="1" as="geometry">
            <mxPoint x="14" y="-33" as="offset" />
          </mxGeometry>
        </mxCell>
        <mxCell id="k3ujH99_nBCrgttbyDJp-31" value="" style="endArrow=none;html=1;rounded=0;" edge="1" parent="1" source="k3ujH99_nBCrgttbyDJp-28" target="k3ujH99_nBCrgttbyDJp-20">
          <mxGeometry relative="1" as="geometry">
            <mxPoint x="3813" y="726.9500000000002" as="sourcePoint" />
            <mxPoint x="3812.5" y="891.4600000000002" as="targetPoint" />
          </mxGeometry>
        </mxCell>
        <mxCell id="k3ujH99_nBCrgttbyDJp-32" value="N" style="resizable=0;html=1;align=right;verticalAlign=bottom;" connectable="0" vertex="1" parent="k3ujH99_nBCrgttbyDJp-31">
          <mxGeometry x="1" relative="1" as="geometry">
            <mxPoint x="44" y="-5" as="offset" />
          </mxGeometry>
        </mxCell>
        <mxCell id="k3ujH99_nBCrgttbyDJp-33" value="&lt;b&gt;StudentCurses&lt;/b&gt;" style="rounded=1;arcSize=10;whiteSpace=wrap;html=1;align=center;fillColor=#9999FF;strokeColor=#9999FF;" vertex="1" parent="1">
          <mxGeometry x="3953" y="676.95" width="100" height="40" as="geometry" />
        </mxCell>
        <mxCell id="k3ujH99_nBCrgttbyDJp-34" value="" style="endArrow=none;html=1;rounded=0;exitX=1;exitY=0.5;exitDx=0;exitDy=0;" edge="1" parent="1" source="k3ujH99_nBCrgttbyDJp-28" target="k3ujH99_nBCrgttbyDJp-33">
          <mxGeometry relative="1" as="geometry">
            <mxPoint x="4093" y="476.95000000000005" as="sourcePoint" />
            <mxPoint x="4093" y="690.4599999999999" as="targetPoint" />
          </mxGeometry>
        </mxCell>
        <mxCell id="k3ujH99_nBCrgttbyDJp-35" value="1" style="resizable=0;html=1;align=right;verticalAlign=bottom;" connectable="0" vertex="1" parent="k3ujH99_nBCrgttbyDJp-34">
          <mxGeometry x="1" relative="1" as="geometry">
            <mxPoint x="-26" y="-6" as="offset" />
          </mxGeometry>
        </mxCell>
        <mxCell id="k3ujH99_nBCrgttbyDJp-36" value="&lt;b&gt;Enrrol&lt;/b&gt;" style="shape=rhombus;perimeter=rhombusPerimeter;whiteSpace=wrap;html=1;align=center;fillColor=#CCCCCC;strokeColor=#CCCCCC;" vertex="1" parent="1">
          <mxGeometry x="3943" y="524.06" width="120" height="60" as="geometry" />
        </mxCell>
        <mxCell id="k3ujH99_nBCrgttbyDJp-37" value="" style="endArrow=none;html=1;rounded=0;exitX=0.5;exitY=0;exitDx=0;exitDy=0;entryX=0.5;entryY=1;entryDx=0;entryDy=0;" edge="1" parent="1" source="k3ujH99_nBCrgttbyDJp-33" target="k3ujH99_nBCrgttbyDJp-36">
          <mxGeometry relative="1" as="geometry">
            <mxPoint x="3683.444679724722" y="740.157660137639" as="sourcePoint" />
            <mxPoint x="4003" y="599" as="targetPoint" />
          </mxGeometry>
        </mxCell>
        <mxCell id="k3ujH99_nBCrgttbyDJp-38" value="1" style="resizable=0;html=1;align=right;verticalAlign=bottom;" connectable="0" vertex="1" parent="k3ujH99_nBCrgttbyDJp-37">
          <mxGeometry x="1" relative="1" as="geometry">
            <mxPoint x="13" y="69" as="offset" />
          </mxGeometry>
        </mxCell>
        <mxCell id="k3ujH99_nBCrgttbyDJp-39" value="&lt;b&gt;&lt;font style=&quot;font-size: 36px;&quot;&gt;Training Company&lt;/font&gt;&lt;/b&gt;" style="text;html=1;strokeColor=#B3B3B3;fillColor=#6666FF;align=center;verticalAlign=middle;whiteSpace=wrap;rounded=0;shadow=1;fontColor=#FFFFFF;gradientColor=none;" vertex="1" parent="1">
          <mxGeometry x="3523" y="139.49" width="610" height="78.51" as="geometry" />
        </mxCell>
        <mxCell id="k3ujH99_nBCrgttbyDJp-40" style="edgeStyle=orthogonalEdgeStyle;rounded=0;orthogonalLoop=1;jettySize=auto;html=1;entryX=1;entryY=0.5;entryDx=0;entryDy=0;fontSize=24;" edge="1" parent="1" source="k3ujH99_nBCrgttbyDJp-41" target="k3ujH99_nBCrgttbyDJp-33">
          <mxGeometry relative="1" as="geometry" />
        </mxCell>
        <mxCell id="k3ujH99_nBCrgttbyDJp-41" value="StudentCurseID" style="ellipse;whiteSpace=wrap;html=1;align=center;fontStyle=4;fillColor=#CCCCFF;strokeColor=#CCCCFF;" vertex="1" parent="1">
          <mxGeometry x="4090" y="676.9500000000002" width="100" height="40" as="geometry" />
        </mxCell>
        <mxCell id="k3ujH99_nBCrgttbyDJp-42" value="Created by: Emmanuel Murillo Sanchez" style="text;html=1;strokeColor=none;fillColor=none;align=center;verticalAlign=middle;whiteSpace=wrap;rounded=0;shadow=1;glass=0;labelBackgroundColor=none;sketch=0;fontSize=14;fontColor=#999999;" vertex="1" parent="1">
          <mxGeometry x="3924" y="955" width="264" height="30" as="geometry" />
        </mxCell>
      </root>
    </mxGraphModel>
  </diagram>
</mxfile>
